<?xml version="1.0" standalone="no"?>
<svg xmlns:xlink="http://www.w3.org/1999/xlink" id="wave" style="transform:rotate(180deg); transition: 0.3s" viewBox="0 0 1440 310" version="1.1" xmlns="http://www.w3.org/2000/svg"><defs><linearGradient id="sw-gradient-0" x1="0" x2="0" y1="1" y2="0"><stop stop-color="rgba(0, 143.88, 31.392, 1)" offset="0%"/><stop stop-color="rgba(74, 129, 86, 1)" offset="100%"/></linearGradient></defs><path style="transform:translate(0, 0px); opacity:1" fill="url(#sw-gradient-0)" d="M0,124L40,124C80,124,160,124,240,129.2C320,134,400,145,480,134.3C560,124,640,93,720,77.5C800,62,880,62,960,77.5C1040,93,1120,124,1200,139.5C1280,155,1360,155,1440,170.5C1520,186,1600,217,1680,227.3C1760,238,1840,227,1920,217C2000,207,2080,196,2160,201.5C2240,207,2320,227,2400,242.8C2480,258,2560,269,2640,237.7C2720,207,2800,134,2880,103.3C2960,72,3040,83,3120,108.5C3200,134,3280,176,3360,160.2C3440,145,3520,72,3600,67.2C3680,62,3760,124,3840,160.2C3920,196,4000,207,4080,217C4160,227,4240,238,4320,201.5C4400,165,4480,83,4560,41.3C4640,0,4720,0,4800,25.8C4880,52,4960,103,5040,139.5C5120,176,5200,196,5280,211.8C5360,227,5440,238,5520,217C5600,196,5680,145,5720,118.8L5760,93L5760,310L5720,310C5680,310,5600,310,5520,310C5440,310,5360,310,5280,310C5200,310,5120,310,5040,310C4960,310,4880,310,4800,310C4720,310,4640,310,4560,310C4480,310,4400,310,4320,310C4240,310,4160,310,4080,310C4000,310,3920,310,3840,310C3760,310,3680,310,3600,310C3520,310,3440,310,3360,310C3280,310,3200,310,3120,310C3040,310,2960,310,2880,310C2800,310,2720,310,2640,310C2560,310,2480,310,2400,310C2320,310,2240,310,2160,310C2080,310,2000,310,1920,310C1840,310,1760,310,1680,310C1600,310,1520,310,1440,310C1360,310,1280,310,1200,310C1120,310,1040,310,960,310C880,310,800,310,720,310C640,310,560,310,480,310C400,310,320,310,240,310C160,310,80,310,40,310L0,310Z"/><defs><linearGradient id="sw-gradient-1" x1="0" x2="0" y1="1" y2="0"><stop stop-color="rgba(1.975, 203.077, 31.623, 1)" offset="0%"/><stop stop-color="rgba(0, 109.728, 23.941, 1)" offset="100%"/></linearGradient></defs><path style="transform:translate(0, 50px); opacity:0.9" fill="url(#sw-gradient-1)" d="M0,279L40,248C80,217,160,155,240,113.7C320,72,400,52,480,56.8C560,62,640,93,720,87.8C800,83,880,41,960,36.2C1040,31,1120,62,1200,72.3C1280,83,1360,72,1440,72.3C1520,72,1600,83,1680,113.7C1760,145,1840,196,1920,217C2000,238,2080,227,2160,206.7C2240,186,2320,155,2400,160.2C2480,165,2560,207,2640,206.7C2720,207,2800,165,2880,134.3C2960,103,3040,83,3120,77.5C3200,72,3280,83,3360,108.5C3440,134,3520,176,3600,201.5C3680,227,3760,238,3840,237.7C3920,238,4000,227,4080,232.5C4160,238,4240,258,4320,253.2C4400,248,4480,217,4560,217C4640,217,4720,248,4800,263.5C4880,279,4960,279,5040,237.7C5120,196,5200,114,5280,98.2C5360,83,5440,134,5520,160.2C5600,186,5680,186,5720,186L5760,186L5760,310L5720,310C5680,310,5600,310,5520,310C5440,310,5360,310,5280,310C5200,310,5120,310,5040,310C4960,310,4880,310,4800,310C4720,310,4640,310,4560,310C4480,310,4400,310,4320,310C4240,310,4160,310,4080,310C4000,310,3920,310,3840,310C3760,310,3680,310,3600,310C3520,310,3440,310,3360,310C3280,310,3200,310,3120,310C3040,310,2960,310,2880,310C2800,310,2720,310,2640,310C2560,310,2480,310,2400,310C2320,310,2240,310,2160,310C2080,310,2000,310,1920,310C1840,310,1760,310,1680,310C1600,310,1520,310,1440,310C1360,310,1280,310,1200,310C1120,310,1040,310,960,310C880,310,800,310,720,310C640,310,560,310,480,310C400,310,320,310,240,310C160,310,80,310,40,310L0,310Z"/></svg>