<?xml version="1.0" standalone="no"?>
<svg xmlns:xlink="http://www.w3.org/1999/xlink" id="wave" style="transform:rotate(180deg); transition: 0.3s" viewBox="0 0 1440 310" version="1.1" xmlns="http://www.w3.org/2000/svg"><defs><linearGradient id="sw-gradient-0" x1="0" x2="0" y1="1" y2="0"><stop stop-color="rgba(158, 98, 0, 1)" offset="0%"/><stop stop-color="rgba(255, 175.574, 0, 1)" offset="100%"/></linearGradient></defs><path style="transform:translate(0, 0px); opacity:1" fill="url(#sw-gradient-0)" d="M0,155L24,170.5C48,186,96,217,144,237.7C192,258,240,269,288,232.5C336,196,384,114,432,113.7C480,114,528,196,576,196.3C624,196,672,114,720,87.8C768,62,816,93,864,118.8C912,145,960,165,1008,160.2C1056,155,1104,124,1152,139.5C1200,155,1248,217,1296,211.8C1344,207,1392,134,1440,87.8C1488,41,1536,21,1584,15.5C1632,10,1680,21,1728,62C1776,103,1824,176,1872,170.5C1920,165,1968,83,2016,41.3C2064,0,2112,0,2160,25.8C2208,52,2256,103,2304,139.5C2352,176,2400,196,2448,217C2496,238,2544,258,2592,237.7C2640,217,2688,155,2736,134.3C2784,114,2832,134,2880,144.7C2928,155,2976,155,3024,160.2C3072,165,3120,176,3168,165.3C3216,155,3264,124,3312,139.5C3360,155,3408,217,3432,248L3456,279L3456,310L3432,310C3408,310,3360,310,3312,310C3264,310,3216,310,3168,310C3120,310,3072,310,3024,310C2976,310,2928,310,2880,310C2832,310,2784,310,2736,310C2688,310,2640,310,2592,310C2544,310,2496,310,2448,310C2400,310,2352,310,2304,310C2256,310,2208,310,2160,310C2112,310,2064,310,2016,310C1968,310,1920,310,1872,310C1824,310,1776,310,1728,310C1680,310,1632,310,1584,310C1536,310,1488,310,1440,310C1392,310,1344,310,1296,310C1248,310,1200,310,1152,310C1104,310,1056,310,1008,310C960,310,912,310,864,310C816,310,768,310,720,310C672,310,624,310,576,310C528,310,480,310,432,310C384,310,336,310,288,310C240,310,192,310,144,310C96,310,48,310,24,310L0,310Z"/></svg>