<?xml version="1.0" standalone="no"?>
<svg xmlns:xlink="http://www.w3.org/1999/xlink" id="wave" style="transform:rotate(180deg); transition: 0.3s" viewBox="0 0 1440 290" version="1.1" xmlns="http://www.w3.org/2000/svg"><defs><linearGradient id="sw-gradient-0" x1="0" x2="0" y1="1" y2="0"><stop stop-color="rgba(199, 137, 0, 1)" offset="0%"/><stop stop-color="rgba(255, 176, 0, 1)" offset="100%"/></linearGradient></defs><path style="transform:translate(0, 0px); opacity:1" fill="url(#sw-gradient-0)" d="M0,232L30,217.5C60,203,120,174,180,174C240,174,300,203,360,217.5C420,232,480,232,540,217.5C600,203,660,174,720,140.2C780,106,840,68,900,67.7C960,68,1020,106,1080,111.2C1140,116,1200,87,1260,91.8C1320,97,1380,135,1440,125.7C1500,116,1560,58,1620,48.3C1680,39,1740,77,1800,111.2C1860,145,1920,174,1980,198.2C2040,222,2100,242,2160,217.5C2220,193,2280,126,2340,87C2400,48,2460,39,2520,33.8C2580,29,2640,29,2700,62.8C2760,97,2820,164,2880,183.7C2940,203,3000,174,3060,174C3120,174,3180,203,3240,217.5C3300,232,3360,232,3420,198.2C3480,164,3540,97,3600,101.5C3660,106,3720,184,3780,203C3840,222,3900,184,3960,145C4020,106,4080,68,4140,62.8C4200,58,4260,87,4290,101.5L4320,116L4320,290L4290,290C4260,290,4200,290,4140,290C4080,290,4020,290,3960,290C3900,290,3840,290,3780,290C3720,290,3660,290,3600,290C3540,290,3480,290,3420,290C3360,290,3300,290,3240,290C3180,290,3120,290,3060,290C3000,290,2940,290,2880,290C2820,290,2760,290,2700,290C2640,290,2580,290,2520,290C2460,290,2400,290,2340,290C2280,290,2220,290,2160,290C2100,290,2040,290,1980,290C1920,290,1860,290,1800,290C1740,290,1680,290,1620,290C1560,290,1500,290,1440,290C1380,290,1320,290,1260,290C1200,290,1140,290,1080,290C1020,290,960,290,900,290C840,290,780,290,720,290C660,290,600,290,540,290C480,290,420,290,360,290C300,290,240,290,180,290C120,290,60,290,30,290L0,290Z"/><defs><linearGradient id="sw-gradient-1" x1="0" x2="0" y1="1" y2="0"><stop stop-color="rgba(255, 176, 0, 1)" offset="0%"/><stop stop-color="rgba(199, 137, 0, 1)" offset="100%"/></linearGradient></defs><path style="transform:translate(0, 50px); opacity:0.9" fill="url(#sw-gradient-1)" d="M0,116L30,106.3C60,97,120,77,180,58C240,39,300,19,360,29C420,39,480,77,540,77.3C600,77,660,39,720,48.3C780,58,840,116,900,149.8C960,184,1020,193,1080,203C1140,213,1200,222,1260,207.8C1320,193,1380,155,1440,145C1500,135,1560,155,1620,154.7C1680,155,1740,135,1800,130.5C1860,126,1920,135,1980,125.7C2040,116,2100,87,2160,77.3C2220,68,2280,77,2340,72.5C2400,68,2460,48,2520,62.8C2580,77,2640,126,2700,120.8C2760,116,2820,58,2880,67.7C2940,77,3000,155,3060,183.7C3120,213,3180,193,3240,159.5C3300,126,3360,77,3420,91.8C3480,106,3540,184,3600,193.3C3660,203,3720,145,3780,130.5C3840,116,3900,145,3960,140.2C4020,135,4080,97,4140,82.2C4200,68,4260,77,4290,82.2L4320,87L4320,290L4290,290C4260,290,4200,290,4140,290C4080,290,4020,290,3960,290C3900,290,3840,290,3780,290C3720,290,3660,290,3600,290C3540,290,3480,290,3420,290C3360,290,3300,290,3240,290C3180,290,3120,290,3060,290C3000,290,2940,290,2880,290C2820,290,2760,290,2700,290C2640,290,2580,290,2520,290C2460,290,2400,290,2340,290C2280,290,2220,290,2160,290C2100,290,2040,290,1980,290C1920,290,1860,290,1800,290C1740,290,1680,290,1620,290C1560,290,1500,290,1440,290C1380,290,1320,290,1260,290C1200,290,1140,290,1080,290C1020,290,960,290,900,290C840,290,780,290,720,290C660,290,600,290,540,290C480,290,420,290,360,290C300,290,240,290,180,290C120,290,60,290,30,290L0,290Z"/></svg>